<?xml version="1.0" standalone="no"?>
<!DOCTYPE svg PUBLIC "-//W3C//DTD SVG 20010904//EN"
 "http://www.w3.org/TR/2001/REC-SVG-20010904/DTD/svg10.dtd">
<svg version="1.0" xmlns="http://www.w3.org/2000/svg"
 width="1200.000000pt" height="1200.000000pt" viewBox="0 0 1200.000000 1200.000000"
 preserveAspectRatio="xMidYMid meet">
<metadata>
Created by potrace 1.16, written by Peter Selinger 2001-2019
</metadata>
<g transform="translate(0.000000,1200.000000) scale(0.100000,-0.100000)"
fill="#000000" stroke="none">
<path d="M5559 8827 c-239 -139 -618 -358 -842 -487 l-407 -235 0 -980 0 -980
398 -230 c218 -126 598 -345 844 -487 l448 -258 845 487 845 488 0 980 0 980
-841 485 c-462 267 -843 486 -847 487 -4 1 -203 -112 -443 -250z m1216 -377
l754 -435 0 -890 0 -890 -107 -61 c-59 -33 -401 -230 -761 -439 -563 -326
-657 -377 -677 -369 -13 5 -359 203 -768 439 l-745 430 0 890 0 890 757 437
c416 241 765 437 775 435 10 -1 358 -198 772 -437z"/>
<path d="M5830 7872 l-155 -87 -3 -75 -3 -75 -156 -85 c-226 -123 -203 -92
-203 -284 l0 -162 -70 -38 -70 -37 0 -183 c0 -151 3 -186 15 -196 25 -21 299
-170 312 -170 6 0 27 9 46 20 l35 21 207 -116 c114 -63 211 -115 215 -115 4 0
101 52 215 115 l207 116 35 -21 c19 -11 39 -20 45 -20 15 0 282 147 307 168
18 16 20 33 23 199 l3 182 -73 37 -72 37 0 163 c0 193 23 161 -204 284 l-157
85 2 65 c1 36 1 70 0 77 -1 7 -20 21 -43 31 -24 10 -96 49 -162 85 -65 37
-123 67 -130 66 -6 0 -81 -40 -166 -87z m271 -58 l100 -57 -43 -24 c-24 -14
-69 -38 -100 -54 l-58 -29 -57 29 c-32 16 -77 40 -101 54 l-43 24 98 56 c54
31 99 56 100 56 2 1 48 -24 104 -55z m-194 -210 l53 -29 0 -113 0 -114 -102
55 -103 56 -3 116 -3 117 53 -30 c29 -16 77 -42 105 -58z m336 -144 c-4 -4
-52 -31 -105 -60 l-98 -52 0 114 0 113 103 57 102 56 3 -111 c1 -61 -1 -114
-5 -117z m-562 -47 c18 -21 298 -173 319 -173 21 0 301 152 319 173 5 7 11 38
13 70 l3 56 138 -75 137 -76 0 -120 0 -120 -44 26 c-25 14 -52 26 -61 26 -9 0
-86 -39 -171 -86 l-154 -86 0 -189 0 -189 58 -29 c108 -56 113 -45 -72 -149
l-166 -92 -166 92 c-185 104 -180 93 -71 149 l57 29 0 153 c0 83 3 169 6 189
6 33 4 39 -18 47 -14 5 -86 43 -161 85 -74 42 -143 76 -152 76 -9 0 -36 -12
-61 -26 l-44 -26 0 120 0 120 138 76 137 75 3 -56 c2 -32 8 -63 13 -70z m-85
-355 c52 -28 94 -54 94 -57 0 -3 -44 -29 -97 -58 l-97 -51 -98 51 c-54 29 -98
54 -98 57 0 6 182 109 194 110 5 0 51 -23 102 -52z m1010 0 c52 -29 94 -55 94
-58 0 -3 -44 -28 -98 -57 l-98 -51 -97 51 c-53 29 -97 55 -97 58 0 6 181 108
193 109 5 0 51 -24 103 -52z m-1148 -353 l3 -117 -78 43 c-151 83 -133 58
-133 187 l0 113 103 -55 102 -55 3 -116z m282 112 l0 -113 -94 -52 c-51 -29
-96 -52 -100 -52 -4 0 -5 51 -4 112 l3 113 95 52 c52 29 96 53 98 53 1 0 2
-51 2 -113z m708 10 c12 -10 18 -227 6 -227 -4 0 -49 23 -100 52 l-94 52 0
113 0 114 88 -47 c48 -26 93 -52 100 -57z m302 -9 c0 -129 18 -104 -132 -187
l-78 -42 0 114 0 115 103 56 c56 30 103 56 105 56 1 0 2 -51 2 -112z"/>
<path d="M5810 3845 l0 -505 100 0 100 0 0 253 c0 243 1 254 21 276 45 48 130
56 176 17 l28 -24 3 -261 3 -261 100 0 100 0 -3 278 c-3 276 -3 277 -30 334
-37 80 -87 112 -184 116 -85 5 -133 -9 -180 -50 l-34 -30 0 181 0 181 -100 0
-100 0 0 -505z"/>
<path d="M8234 4330 c-60 -24 -73 -112 -25 -161 25 -24 38 -29 79 -29 61 0 99
26 108 76 16 89 -72 151 -162 114z"/>
<path d="M3049 4287 c-83 -28 -131 -64 -166 -125 -24 -39 -28 -58 -28 -117 1
-154 74 -219 359 -320 44 -16 93 -41 110 -56 26 -23 31 -35 31 -74 0 -40 -4
-50 -30 -71 -50 -40 -157 -44 -226 -8 -36 18 -69 69 -69 107 l0 27 -105 0
c-121 0 -119 2 -89 -101 21 -73 105 -156 190 -189 88 -35 249 -40 342 -11 130
39 198 129 196 258 -3 139 -101 232 -319 303 -93 30 -162 66 -175 89 -5 11
-10 34 -10 51 0 86 151 129 248 70 24 -15 35 -32 44 -65 l12 -45 103 0 103 0
-6 43 c-4 23 -12 56 -20 74 -20 50 -91 120 -153 150 -49 23 -71 28 -166 30
-94 3 -119 0 -176 -20z"/>
<path d="M5340 4140 l0 -90 -55 0 -55 0 0 -70 0 -70 55 0 55 0 0 -223 c0 -211
1 -225 23 -267 34 -69 87 -92 199 -88 47 2 89 6 93 10 4 3 7 32 7 65 0 93 2
89 -41 85 -21 -2 -48 1 -60 7 -20 11 -21 18 -21 211 l0 200 60 0 60 0 0 70 0
70 -60 0 -60 0 0 90 0 90 -100 0 -100 0 0 -90z"/>
<path d="M4760 4049 c-25 -11 -55 -29 -67 -40 l-21 -21 -7 31 -7 31 -94 0 -94
0 0 -355 0 -355 100 0 100 0 0 253 0 253 30 29 c23 22 41 29 83 33 46 4 57 1
83 -21 l29 -25 3 -261 3 -261 100 0 100 0 -3 283 c-3 245 -5 287 -21 322 -23
51 -63 94 -104 111 -49 21 -159 17 -213 -7z"/>
<path d="M6837 4056 c-95 -34 -170 -114 -204 -216 -26 -82 -23 -227 7 -304 27
-71 92 -140 165 -176 44 -22 63 -25 165 -25 112 0 117 1 178 34 56 30 102 71
102 90 0 3 -21 30 -46 59 l-47 53 -26 -25 c-87 -84 -236 -71 -290 24 -41 72
-48 70 204 70 l225 0 0 65 c0 178 -73 307 -198 349 -56 20 -183 20 -235 2z
m205 -185 c19 -22 28 -42 28 -66 l0 -35 -125 0 c-140 0 -141 0 -105 70 27 52
62 71 124 66 41 -3 55 -9 78 -35z"/>
<path d="M7571 4053 c-25 -9 -66 -37 -92 -63 -53 -53 -65 -89 -57 -170 9 -96
77 -147 258 -196 105 -28 130 -44 130 -85 0 -92 -189 -91 -222 1 l-10 30 -95
0 -95 0 7 -32 c29 -131 143 -208 309 -208 95 0 161 17 217 56 130 90 111 278
-36 345 -22 10 -85 29 -140 44 -54 14 -107 33 -117 42 -46 41 -1 113 71 113
50 0 83 -20 100 -58 l15 -32 99 0 99 0 -7 33 c-18 79 -54 126 -129 164 -44 23
-65 27 -156 30 -78 2 -117 -2 -149 -14z"/>
<path d="M8741 4053 c-25 -9 -66 -37 -92 -63 -53 -53 -65 -89 -57 -170 9 -96
77 -147 258 -196 105 -28 130 -44 130 -85 0 -92 -189 -91 -222 1 l-10 30 -95
0 -95 0 7 -32 c29 -131 143 -208 309 -208 95 0 161 17 217 56 130 90 111 278
-36 345 -22 10 -85 29 -140 44 -54 14 -107 33 -117 42 -46 41 -1 113 71 113
50 0 83 -20 100 -58 l15 -32 99 0 99 0 -7 33 c-18 79 -54 126 -129 164 -44 23
-65 27 -156 30 -78 2 -117 -2 -149 -14z"/>
<path d="M3670 4047 c0 -2 27 -82 61 -178 33 -96 89 -256 124 -356 l63 -181
-23 -50 c-25 -53 -56 -72 -121 -72 l-34 0 0 -74 c0 -86 1 -86 93 -86 102 1
176 49 215 140 8 19 77 213 153 430 75 217 141 403 144 413 7 16 0 17 -101 15
l-109 -3 -60 -202 c-33 -112 -62 -203 -66 -203 -3 0 -33 91 -65 203 l-60 202
-107 3 c-59 1 -107 1 -107 -1z"/>
<path d="M8190 3695 l0 -355 100 0 100 0 0 355 0 355 -100 0 -100 0 0 -355z"/>
</g>
</svg>
