<?xml version="1.0" standalone="no"?>
<!DOCTYPE svg PUBLIC "-//W3C//DTD SVG 20010904//EN"
 "http://www.w3.org/TR/2001/REC-SVG-20010904/DTD/svg10.dtd">
<svg version="1.0" xmlns="http://www.w3.org/2000/svg"
 width="608.000000pt" height="625.000000pt" viewBox="0 0 608.000000 625.000000"
 preserveAspectRatio="xMidYMid meet">
<metadata>
Created by potrace 1.16, written by Peter Selinger 2001-2019
</metadata>
<g transform="translate(0.000000,625.000000) scale(0.100000,-0.100000)"
fill="#000000" stroke="none">
<path d="M2975 5406 c-52 -33 -348 -206 -413 -241 -108 -57 -218 -118 -222
-124 -3 -4 -88 -55 -190 -113 -266 -151 -421 -241 -537 -311 -56 -34 -119 -71
-140 -82 -53 -27 -380 -216 -425 -246 l-38 -24 1 -1185 0 -1185 36 -23 c19
-12 113 -67 207 -121 335 -191 442 -254 536 -310 52 -32 127 -75 165 -96 104
-56 346 -195 376 -216 44 -31 200 -119 211 -119 5 0 22 -9 37 -19 14 -10 98
-60 186 -111 88 -51 183 -107 212 -126 28 -19 63 -34 78 -34 15 0 50 15 78 34
29 18 124 75 212 126 88 51 172 101 187 111 14 10 31 19 36 19 11 0 106 54
267 152 50 30 173 101 275 158 102 57 212 120 245 141 58 36 130 78 501 290
94 54 188 109 207 121 l36 23 0 1185 1 1185 -58 37 c-59 38 -339 199 -405 233
-21 11 -84 48 -140 82 -56 33 -163 96 -237 139 -267 153 -496 286 -545 316
-27 17 -85 50 -127 72 -101 53 -389 220 -453 263 -62 41 -96 41 -160 -1z m285
-309 c52 -28 185 -103 295 -167 110 -64 235 -135 278 -159 43 -23 160 -91 260
-150 100 -60 217 -127 259 -150 43 -23 151 -85 240 -138 90 -53 196 -115 235
-137 l73 -41 0 -1077 c0 -630 -4 -1078 -9 -1078 -8 0 -226 -125 -811 -465
-129 -75 -284 -164 -345 -199 -60 -34 -175 -100 -255 -147 -80 -47 -209 -119
-288 -160 l-143 -74 -52 29 c-29 15 -90 49 -137 74 -47 25 -186 104 -310 177
-124 72 -245 141 -270 155 -25 13 -133 75 -240 139 -107 63 -238 138 -290 167
-52 28 -191 108 -308 178 -117 69 -217 126 -222 126 -7 0 -10 383 -10 1080 0
594 4 1080 8 1080 5 0 111 61 237 136 126 75 263 154 305 176 41 22 156 89
255 148 99 59 216 126 260 150 44 24 172 97 285 163 113 66 239 136 280 157
41 21 106 56 145 78 l70 41 55 -31 c30 -17 98 -54 150 -81z"/>
<path d="M2965 4056 c-44 -24 -129 -71 -189 -104 -61 -34 -113 -63 -117 -64
-4 -2 -9 -43 -10 -93 -4 -105 15 -87 -199 -198 -74 -39 -150 -81 -168 -94 -63
-47 -67 -59 -72 -262 l-5 -186 -83 -45 -83 -45 3 -222 c2 -181 6 -225 18 -237
18 -17 252 -153 334 -193 l58 -28 46 26 46 26 86 -45 c47 -25 161 -87 253
-139 93 -51 170 -93 172 -93 2 0 83 44 181 98 99 54 213 117 254 139 l76 40
47 -26 47 -26 93 48 c50 27 138 76 195 110 91 54 103 65 111 96 5 20 11 124
13 232 l4 197 -88 43 -88 43 0 166 c0 91 -5 182 -10 202 -14 47 -61 89 -163
139 -45 23 -123 64 -174 91 l-92 51 6 67 c8 97 2 114 -54 140 -27 12 -116 60
-199 106 -83 46 -155 84 -160 84 -5 0 -45 -20 -89 -44z m207 -148 l107 -62
-95 -52 c-53 -29 -104 -56 -115 -59 -13 -4 -57 13 -128 52 -61 31 -109 58
-108 59 10 10 214 124 222 124 5 0 58 -28 117 -62z m-287 -222 l110 -63 3
-131 3 -131 -113 63 c-82 46 -114 69 -119 87 -10 33 -11 239 -1 239 4 -1 57
-29 117 -64z m464 -49 c1 -62 -1 -120 -5 -130 -6 -16 -34 -34 -192 -124 l-43
-24 3 132 3 131 110 64 c61 35 113 64 116 64 3 0 7 -51 8 -113z m-705 -137 c5
-40 13 -66 26 -78 29 -26 320 -189 355 -198 17 -5 39 -7 50 -5 32 5 339 176
369 207 8 8 18 41 22 74 4 33 8 60 11 60 7 0 108 -52 211 -108 l102 -57 0
-136 0 -136 -59 31 -59 31 -39 -18 c-21 -10 -113 -60 -205 -110 l-168 -92 0
-230 0 -230 85 -43 c47 -24 85 -48 85 -52 0 -13 -45 -42 -145 -95 -49 -26
-120 -65 -157 -86 -36 -21 -70 -39 -73 -39 -4 0 -48 24 -98 53 -51 30 -112 63
-137 75 -25 12 -67 35 -94 52 -45 29 -47 32 -32 48 8 10 47 33 86 52 l70 34 2
208 c1 114 2 218 2 230 1 19 -20 34 -124 91 -69 37 -162 87 -208 110 l-83 42
-60 -31 -59 -31 0 136 0 136 53 30 c82 46 251 135 258 135 4 0 9 -27 13 -60z
m-80 -509 l99 -59 -39 -24 c-21 -14 -71 -42 -110 -63 l-70 -38 -107 59 c-59
32 -107 61 -107 64 0 11 195 120 215 119 11 0 65 -26 119 -58z m1218 2 c54
-31 98 -59 98 -63 0 -6 -203 -120 -215 -120 -8 0 -181 97 -203 113 -10 8 12
25 85 68 54 32 107 58 117 59 11 0 63 -26 118 -57z m-1390 -419 l3 -133 -40
23 c-22 13 -73 42 -113 65 -46 27 -77 52 -83 67 -5 14 -9 74 -9 134 l0 108
119 -65 120 -66 3 -133z m338 129 l0 -128 -104 -57 c-56 -32 -106 -58 -110
-58 -4 0 -5 57 -4 127 l3 127 100 58 c55 32 103 58 108 58 4 0 7 -57 7 -127z
m759 72 c67 -38 101 -63 105 -78 8 -30 8 -237 -1 -237 -3 0 -53 26 -109 58
l-104 57 0 128 c0 70 2 127 5 127 3 0 49 -25 104 -55z m465 -35 c9 -115 1
-155 -33 -179 -31 -22 -188 -111 -196 -111 -3 0 -5 58 -5 128 l0 128 108 61
c59 34 110 61 113 62 3 1 9 -40 13 -89z"/>
</g>
</svg>
