<?xml version="1.0" standalone="no"?>
<!DOCTYPE svg PUBLIC "-//W3C//DTD SVG 20010904//EN"
 "http://www.w3.org/TR/2001/REC-SVG-20010904/DTD/svg10.dtd">
<svg version="1.0" xmlns="http://www.w3.org/2000/svg"
 width="2000.000000pt" height="2000.000000pt" viewBox="0 0 2000.000000 2000.000000"
 preserveAspectRatio="xMidYMid meet">
<metadata>
Created by potrace 1.16, written by Peter Selinger 2001-2019
</metadata>
<g transform="translate(0.000000,2000.000000) scale(0.100000,-0.100000)"
fill="#000000" stroke="none">
<path d="M4491 16319 c-108 -21 -203 -95 -253 -197 l-33 -67 0 -3120 0 -3120
32 -66 c39 -79 102 -140 181 -177 l57 -27 1570 -3 1570 -3 289 -440 c231 -350
292 -437 302 -427 7 7 101 146 210 308 109 162 238 354 287 425 l88 130 687
11 687 10 -689 0 -689 -1 -86 -126 c-47 -70 -178 -264 -291 -432 -113 -169
-209 -305 -213 -304 -7 2 -274 404 -484 729 l-88 137 -1551 0 c-1687 1 -1603
-2 -1693 55 -50 32 -109 100 -135 155 l-21 46 0 3115 0 3115 33 67 c51 105
139 169 258 188 82 14 7394 13 7452 0 143 -33 244 -139 271 -285 8 -40 11
-436 11 -1259 l0 -1200 -83 -81 c-46 -44 -102 -106 -126 -137 -42 -57 -45 -58
-92 -58 -350 0 -556 -335 -629 -1025 -21 -200 -39 -631 -29 -699 20 -145 57
-270 146 -495 58 -149 167 -391 175 -391 2 0 1 100 0 222 -5 287 22 944 49
1188 35 323 182 680 370 895 74 85 177 172 212 179 63 13 176 6 243 -15 315
-96 746 -466 1021 -874 l40 -60 -126 0 c-120 0 -129 -1 -185 -30 -67 -33 -88
-57 -68 -77 7 -7 65 -15 152 -20 77 -4 184 -14 238 -23 93 -15 98 -17 127 -53
56 -71 170 -185 240 -240 39 -31 90 -74 115 -96 25 -23 60 -53 79 -68 l34 -26
28 -228 c37 -294 51 -365 91 -444 45 -87 95 -123 182 -128 53 -4 74 0 125 23
138 62 211 202 211 407 l0 87 35 7 c67 12 207 -1 251 -23 40 -22 102 -82 124
-123 22 -42 40 -116 46 -196 12 -146 -25 -279 -101 -362 -51 -57 -66 -59 -108
-17 -27 27 -43 35 -68 34 l-34 -1 30 -9 c65 -18 97 -75 75 -130 -27 -65 -101
-80 -151 -30 -38 39 -39 87 -3 130 14 17 21 31 16 31 -22 0 -62 -62 -62 -95 0
-33 0 -33 -42 -28 -24 2 -51 6 -60 8 -12 2 -18 -3 -18 -14 0 -10 -13 -174 -30
-366 -16 -192 -28 -350 -27 -352 11 -10 209 278 281 409 32 57 48 75 109 115
97 63 188 156 220 223 115 241 239 975 224 1325 -14 313 -160 697 -401 1055
-170 252 -394 421 -874 660 -426 212 -732 294 -1092 293 -180 0 -296 -15 -444
-58 -107 -31 -275 -109 -354 -164 -32 -23 -61 -41 -65 -41 -4 0 -8 561 -9
1248 l-3 1247 -28 57 c-32 64 -104 135 -172 168 -25 12 -76 26 -113 31 -88 11
-7394 10 -7451 -2z"/>
<path d="M9430 12679 c0 -55 -2 -60 -17 -53 -41 18 -108 15 -141 -6 -79 -49
-81 -185 -4 -236 32 -22 122 -24 146 -5 11 9 16 10 16 2 0 -6 17 -11 40 -11
l40 0 0 185 0 185 -40 0 -40 0 0 -61z m-23 -121 c18 -14 25 -61 14 -91 -19
-49 -103 -49 -122 1 -28 74 48 138 108 90z"/>
<path d="M7030 12545 l0 -175 40 0 40 0 0 44 0 43 71 6 c104 9 152 49 152 128
0 93 -57 129 -206 129 l-97 0 0 -175z m202 88 c25 -23 23 -68 -4 -87 -13 -9
-43 -16 -70 -16 l-48 0 0 60 0 60 52 0 c34 0 58 -6 70 -17z"/>
<path d="M7413 12625 c-36 -16 -39 -23 -20 -49 12 -16 18 -17 55 -5 32 9 48 9
67 1 45 -21 30 -39 -37 -46 -73 -9 -108 -34 -108 -78 0 -42 15 -64 51 -77 43
-15 68 -14 102 3 15 8 27 11 27 5 0 -5 16 -9 35 -9 l35 0 0 101 c0 55 -5 109
-10 120 -25 46 -129 64 -197 34z"/>
<path d="M7725 12624 c-38 -20 -45 -31 -45 -76 0 -45 24 -65 91 -74 64 -9 80
-20 55 -39 -24 -18 -49 -18 -98 -1 -36 13 -37 13 -47 -15 -9 -25 -7 -30 12
-41 12 -6 52 -12 89 -12 87 -1 122 21 126 82 4 48 -17 67 -85 78 -49 8 -79 26
-69 42 9 15 81 16 106 2 16 -9 22 -5 34 19 15 29 15 29 -16 40 -45 16 -118 13
-153 -5z"/>
<path d="M7991 12627 c-27 -16 -50 -53 -51 -80 0 -33 44 -66 99 -73 60 -8 83
-27 52 -43 -27 -15 -55 -14 -95 3 -33 14 -34 13 -46 -12 -15 -34 2 -48 69 -57
94 -13 161 24 161 87 0 41 -29 63 -99 77 -49 10 -62 16 -59 29 4 21 57 28 98
14 24 -9 29 -7 39 15 8 17 9 29 2 36 -16 16 -143 19 -170 4z"/>
<path d="M8192 12628 c3 -7 24 -68 48 -135 l44 -123 41 0 c40 0 41 1 59 53 37
103 36 103 46 87 6 -8 19 -43 31 -78 l21 -63 41 3 42 3 42 115 c24 63 46 123
49 133 5 16 1 18 -32 15 -36 -3 -38 -5 -60 -68 -42 -124 -39 -120 -54 -75 -43
134 -49 145 -84 145 -33 0 -34 -1 -66 -92 l-33 -91 -31 89 -32 89 -38 3 c-29
3 -37 0 -34 -10z"/>
<path d="M8743 12625 c-65 -28 -92 -118 -57 -191 17 -36 82 -74 127 -74 44 0
106 30 129 63 27 38 30 113 4 151 -39 61 -129 83 -203 51z m95 -51 c29 -8 55
-58 46 -87 -11 -36 -35 -57 -66 -57 -63 0 -91 78 -43 125 26 27 29 28 63 19z"/>
<path d="M9020 12505 l0 -135 40 0 40 0 0 80 c0 89 17 120 65 120 22 0 25 4
25 35 0 30 -3 35 -23 35 -13 0 -32 -7 -43 -15 -25 -19 -34 -19 -34 0 0 10 -11
15 -35 15 l-35 0 0 -135z"/>
<path d="M12021 12168 c-80 -14 -166 -68 -171 -108 -6 -40 -7 -40 213 -34 116
3 222 7 235 10 32 6 28 37 -12 72 -62 54 -165 77 -265 60z"/>
<path d="M5688 11754 c-51 -16 -106 -63 -135 -117 -16 -29 -18 -75 -21 -517
-3 -537 -3 -534 62 -608 60 -69 76 -72 401 -72 177 0 305 4 329 11 51 14 128
91 144 145 18 62 16 965 -2 1017 -21 57 -61 103 -113 128 -47 23 -56 24 -333
26 -229 2 -294 -1 -332 -13z m625 -15 c49 -13 105 -63 128 -114 17 -37 19 -77
19 -516 0 -330 -3 -486 -11 -510 -18 -54 -55 -95 -106 -120 -46 -23 -59 -24
-299 -27 -152 -2 -273 1 -310 7 -74 14 -131 53 -160 111 l-23 45 -1 483 c0
526 0 524 58 586 59 62 78 66 387 66 165 0 295 -4 318 -11z"/>
<path d="M6841 11760 c-58 -14 -114 -61 -143 -119 l-28 -55 0 -475 c0 -307 4
-490 11 -515 6 -21 29 -58 51 -82 67 -73 80 -75 430 -72 l306 3 44 30 c49 35
83 82 98 134 13 46 13 931 0 985 -13 59 -59 117 -115 145 -49 26 -50 26 -335
28 -157 1 -300 -2 -319 -7z m612 -21 c49 -13 100 -59 126 -113 20 -41 21 -57
21 -522 l0 -480 -25 -51 c-32 -63 -83 -100 -160 -114 -36 -6 -156 -9 -310 -7
-246 3 -252 3 -300 29 -30 15 -62 42 -80 68 l-30 43 -3 499 c-2 477 -2 500 17
536 10 21 32 50 48 65 57 55 74 57 378 58 166 0 295 -4 318 -11z"/>
<path d="M7936 11755 c-53 -19 -85 -44 -121 -94 l-30 -43 -3 -491 c-2 -340 0
-504 8 -530 14 -49 74 -115 125 -138 36 -17 71 -19 335 -19 291 0 296 1 347
24 64 30 108 87 123 161 7 36 10 203 8 512 -3 448 -3 459 -25 498 -30 57 -80
101 -136 119 -66 22 -570 23 -631 1z m655 -32 c57 -30 92 -71 109 -132 14 -50
13 -934 -1 -984 -13 -47 -67 -109 -117 -133 -33 -17 -65 -19 -332 -19 -269 0
-298 2 -330 19 -49 26 -79 55 -103 101 -21 39 -22 51 -25 495 -4 514 -2 538
56 603 68 74 79 77 403 77 l285 0 55 -27z"/>
<path d="M9056 11755 c-53 -19 -85 -44 -121 -94 l-30 -43 -3 -502 -3 -503 29
-54 c20 -39 41 -62 77 -84 l48 -30 304 -3 304 -3 54 25 c66 30 109 86 125 161
7 35 10 205 8 511 -3 452 -3 460 -25 500 -30 56 -94 109 -148 123 -68 17 -569
14 -619 -4z m676 -40 c28 -20 53 -49 71 -84 l27 -55 0 -465 c0 -298 -4 -480
-11 -504 -13 -47 -67 -109 -117 -133 -33 -17 -65 -19 -332 -19 -269 0 -298 2
-330 19 -49 26 -79 55 -103 101 -21 39 -22 51 -25 494 -3 514 -1 540 56 604
69 76 77 77 419 75 l301 -3 44 -30z"/>
<path d="M10148 11758 c-21 -5 -57 -27 -82 -49 -79 -69 -77 -56 -74 -626 l3
-501 30 -43 c19 -27 50 -54 85 -71 l54 -29 306 3 307 3 48 30 c36 22 57 45 77
84 l28 53 0 489 c0 534 0 531 -58 592 -15 16 -45 39 -67 50 -38 21 -54 22
-330 24 -171 1 -305 -3 -327 -9z m637 -27 c61 -27 103 -75 120 -136 13 -45 15
-122 13 -516 -3 -457 -3 -465 -25 -505 -12 -23 -36 -53 -52 -67 -58 -48 -85
-52 -391 -52 -273 0 -287 1 -325 22 -55 29 -91 70 -110 122 -13 37 -15 115
-15 500 0 275 4 470 10 492 17 61 52 102 109 132 l55 27 285 0 c255 0 290 -2
326 -19z"/>
<path d="M12008 11739 c-74 -8 -156 -46 -189 -87 -39 -50 -24 -51 106 -13 96
29 180 27 288 -5 48 -15 90 -24 94 -20 12 12 -32 59 -82 87 -62 35 -131 47
-217 38z"/>
<path d="M13308 11739 c-67 -10 -124 -36 -167 -79 -56 -57 -43 -61 72 -25 54
17 100 25 152 25 52 0 98 -8 152 -25 90 -29 103 -30 103 -11 0 23 -65 73 -122
94 -68 25 -118 30 -190 21z"/>
<path d="M12693 11575 c-104 -223 -353 -870 -361 -940 -3 -33 1 -47 20 -69 30
-35 80 -45 228 -45 133 0 116 13 -51 38 -132 19 -154 32 -142 79 3 13 32 92
65 176 158 400 301 812 296 849 -2 14 -20 -14 -55 -88z"/>
<path d="M12003 11336 c-64 -54 -64 -138 -2 -191 25 -20 41 -25 86 -25 49 0
59 4 89 34 29 29 34 41 34 80 0 39 -6 52 -33 83 -29 31 -41 37 -88 41 -48 4
-59 1 -86 -22z"/>
<path d="M13219 11345 c-102 -55 -65 -215 51 -225 54 -5 73 1 106 34 27 27 34
42 34 74 0 23 -4 52 -10 66 -21 56 -120 84 -181 51z"/>
<path d="M13127 10493 c-3 -4 -12 -36 -21 -70 -20 -79 -44 -126 -90 -179 -41
-47 -128 -97 -199 -115 -26 -6 -46 -16 -44 -22 6 -18 59 -28 112 -21 117 14
219 105 256 225 15 48 20 86 17 120 -5 48 -20 80 -31 62z"/>
<path d="M16175 8302 c4 -8 -1 -22 -12 -35 -43 -49 -136 -224 -197 -372 -68
-165 -109 -309 -145 -520 -16 -89 -28 -321 -22 -395 6 -60 7 -55 14 65 27 441
118 763 320 1139 47 85 56 110 47 120 -10 8 -11 8 -5 -2z"/>
<path d="M1892 8060 c-12 -5 -30 -25 -39 -44 -14 -30 -15 -41 -4 -78 26 -90
77 -219 153 -392 230 -518 693 -1742 861 -2276 97 -308 313 -1087 304 -1096
-4 -4 -269 316 -421 509 -149 188 -341 448 -423 572 -198 296 -533 924 -814
1523 -62 133 -89 137 -89 14 0 -155 162 -753 313 -1157 222 -594 659 -1333
1187 -2008 l45 -57 484 2 485 3 23 60 c175 445 309 860 362 1123 72 353 67
583 -24 1002 -20 91 -52 239 -71 330 -19 91 -44 195 -55 231 -35 120 -165 418
-219 506 -28 43 -91 55 -141 26 -47 -28 -53 -57 -45 -221 9 -187 26 -320 82
-657 98 -593 124 -925 90 -1170 -29 -207 -102 -555 -116 -555 -3 0 -14 125
-24 277 -44 705 -91 1101 -162 1373 -96 372 -270 801 -329 816 -33 8 -65 -4
-74 -29 -5 -14 6 -123 30 -287 50 -352 132 -1050 122 -1050 -8 0 -71 154 -125
305 -114 322 -189 492 -327 740 -34 61 -162 313 -285 560 -123 248 -260 518
-305 600 -102 185 -231 381 -303 458 -46 49 -59 57 -88 56 -19 0 -45 -4 -58
-9z"/>
<path d="M5571 7501 c-69 -134 -240 -670 -335 -1046 -19 -77 -46 -171 -59
-210 -115 -333 -475 -1158 -1083 -2483 -46 -100 -84 -185 -84 -187 0 -3 45 -5
100 -5 73 0 100 -3 100 -12 0 -7 0 -506 0 -1108 l0 -1095 4168 -2 c2292 -1
5225 2 6517 6 l2350 7 -1736 2 -1736 2 33 35 c35 37 50 88 40 130 -11 43 -32
30 -28 -17 5 -52 -17 -97 -61 -124 -31 -19 -96 -19 -3613 -22 l-3581 -2 -6 32
c-3 18 -38 188 -77 378 -39 190 -111 543 -161 785 -49 242 -130 638 -180 880
-50 242 -104 509 -121 594 -18 85 -33 150 -35 145 -3 -9 118 -616 442 -2208
63 -313 115 -578 115 -588 0 -17 -31 -18 -872 -16 l-873 3 -3 1098 -2 1097
-185 0 c-102 0 -185 2 -185 4 0 3 22 67 49 143 27 76 108 309 181 518 73 209
188 540 257 735 69 195 149 423 178 505 98 280 303 839 365 1000 117 300 164
505 176 763 6 137 -5 275 -25 295 -6 6 -17 -5 -30 -32z"/>
<path d="M11212 6555 c-7 -16 -17 -39 -22 -50 -49 -106 -101 -275 -130 -425
-24 -126 -44 -380 -36 -471 l5 -67 -437 4 c-1846 18 -2611 24 -3227 28 l-710
4 560 -8 c657 -10 2046 -27 2870 -36 319 -3 743 -9 942 -13 344 -6 363 -7 389
-27 15 -11 36 -31 46 -45 12 -16 63 -247 163 -744 144 -712 186 -918 325
-1600 126 -622 212 -1045 254 -1255 l41 -205 746 -5 c697 -5 747 -6 772 -23
16 -10 31 -25 34 -33 6 -15 33 -20 33 -5 0 5 -16 23 -35 40 -20 17 -37 32 -38
33 -1 2 -337 5 -747 8 l-745 5 -22 105 c-12 58 -29 141 -37 185 -9 44 -34 168
-56 275 -23 107 -47 227 -54 265 -18 95 -155 773 -266 1315 -50 245 -115 567
-145 715 -88 437 -175 857 -185 895 -5 20 -19 46 -30 58 -12 12 -18 27 -14 34
4 7 3 8 -4 4 -6 -4 -25 0 -41 9 -21 10 -58 15 -120 15 -49 0 -92 4 -96 10 -8
13 -9 519 -1 615 4 44 14 144 22 222 9 78 14 154 12 170 l-4 28 -12 -30z"/>
<path d="M15840 6232 c0 -6 7 -40 15 -76 12 -53 13 -75 4 -112 -8 -31 -10
-119 -6 -282 9 -402 59 -715 208 -1310 l34 -134 35 6 c19 3 60 8 90 11 63 6
36 -5 -61 -25 l-56 -11 22 -82 c13 -45 37 -134 54 -197 18 -63 41 -127 52
-143 22 -30 21 -31 -46 -42 -65 -11 -195 -55 -270 -91 -162 -79 -257 -228
-254 -399 2 -95 17 -125 18 -35 3 140 35 223 121 310 66 68 120 100 231 141
129 47 225 69 279 62 33 -4 54 -1 71 10 20 12 43 13 139 6 184 -14 283 -41
433 -118 209 -107 386 -313 468 -542 18 -49 34 -87 36 -85 9 9 -28 129 -62
204 -19 42 -28 68 -19 57 9 -11 34 -58 55 -105 72 -155 83 -169 137 -170 26 0
36 6 53 33 18 28 20 43 16 117 -6 104 -31 176 -91 267 -38 58 -121 146 -177
188 -191 142 -533 218 -824 182 -128 -15 -145 -14 -137 16 5 20 5 20 14 -2 9
-25 13 -23 73 24 166 132 381 220 589 241 36 4 66 11 66 17 0 11 -122 2 -205
-15 -181 -37 -392 -144 -473 -240 -13 -15 -27 -28 -32 -28 -4 0 -13 28 -20 63
-27 139 -423 1738 -521 2107 -46 171 -59 211 -59 182z"/>
<path d="M6380 5360 c300 -4 1405 -15 2455 -24 1051 -9 2007 -17 2125 -19 203
-2 217 -3 251 -24 19 -13 43 -37 53 -55 12 -25 592 -2873 704 -3463 8 -44 17
-75 19 -69 2 7 -5 56 -16 110 -11 55 -36 182 -56 284 -70 361 -163 830 -471
2385 -80 407 -152 752 -160 767 -8 16 -33 40 -56 56 l-41 27 -206 2 c-341 4
-3283 23 -4246 27 -776 4 -825 3 -355 -4z"/>
<path d="M13316 4961 c15 -84 139 -324 207 -398 11 -12 17 -29 14 -37 -4 -10
-1 -13 7 -10 10 4 16 -9 21 -43 4 -26 16 -75 28 -108 20 -58 31 -82 84 -173
l25 -43 127 6 c69 4 131 8 137 10 6 2 17 0 24 -5 7 -4 -30 -11 -86 -14 -127
-9 -174 -16 -174 -26 0 -21 156 -165 233 -214 100 -66 151 -89 260 -117 115
-31 309 -31 424 -1 156 41 305 128 389 228 21 25 57 55 79 65 53 24 42 24 -73
-5 -160 -40 -254 -49 -428 -43 -170 6 -255 21 -399 68 -303 100 -572 311 -748
585 -37 57 -119 218 -151 294 -3 8 -3 0 0 -19z"/>
<path d="M15778 3294 c-3 -3 17 -26 44 -52 278 -259 478 -768 478 -1215 0 -71
3 -96 11 -91 14 8 6 268 -11 374 -36 226 -107 434 -207 613 -18 33 -30 64 -26
70 3 6 1 7 -5 3 -6 -4 -16 4 -23 16 -41 76 -246 298 -261 282z"/>
<path d="M18166 2485 c-4 -14 -11 -23 -16 -20 -5 3 -7 0 -4 -8 9 -25 -84 -195
-165 -301 -9 -12 -48 -53 -88 -93 -121 -120 -256 -171 -601 -228 -273 -45
-428 -59 -622 -59 -166 1 -195 4 -282 27 -120 32 -212 77 -273 134 l-47 44
-262 -21 c-283 -22 -962 -75 -1471 -115 -176 -14 -359 -28 -408 -32 -48 -3
-85 -8 -82 -11 3 -3 351 -9 773 -13 937 -9 891 -4 1552 -161 122 -29 150 -32
290 -32 232 0 736 24 810 39 36 7 92 26 125 42 l60 29 -3 66 -2 67 57 11 c32
7 99 25 149 41 186 59 336 204 451 434 47 94 78 173 71 181 -3 3 -9 -7 -12
-21z"/>
</g>
</svg>
